<svg width="117" height="27" viewBox="0 0 117 27" fill="none" xmlns="http://www.w3.org/2000/svg">
<g id="Group 1">
<path id="Path 19" fill-rule="evenodd" clip-rule="evenodd" d="M105.236 12.0352C92.6153 21.335 74.2574 26.2892 58.4237 26.2892C36.2412 26.2892 16.3536 18.1332 1.2083 4.5655C0.0609439 3.49869 1.05539 2.05015 2.50855 2.88852C18.8012 12.3402 38.9185 17.9809 59.724 17.9809C73.7219 17.9809 89.173 15.0845 103.4 9.06256C105.542 8.22419 107.301 10.5109 105.236 12.0352H105.236Z" fill="#FF9A00"/>
<path id="Path 20" fill-rule="evenodd" clip-rule="evenodd" d="M110.514 6.01303C108.909 3.95502 99.8056 5.02206 95.7517 5.5557C94.5278 5.70806 94.2983 4.64103 95.4457 3.87872C102.712 -1.22827 114.569 0.2961 115.945 1.97308C117.322 3.65005 115.563 15.5401 108.754 21.1814C107.683 22.0198 106.689 21.5625 107.148 20.4191C108.679 16.6078 112.121 8.14665 110.514 6.01303Z" fill="#FF9A00"/>
</g>
</svg>
