<svg width="36" height="37" viewBox="0 0 36 37" fill="none" xmlns="http://www.w3.org/2000/svg">
<rect y="0.998047" width="36" height="36" rx="18" fill="#B9090B" fill-opacity="0.5"/>
<path d="M25.8571 8.99805H10.1429C8.9375 8.99805 8 9.98019 8 11.1409V26.8552C8 28.0605 8.9375 28.998 10.1429 28.998H16.2589V22.2123H13.4464V18.998H16.2589V16.5873C16.2589 13.8195 17.9107 12.257 20.4107 12.257C21.6607 12.257 22.9107 12.4802 22.9107 12.4802V15.2034H21.5268C20.1429 15.2034 19.6964 16.0516 19.6964 16.9445V18.998H22.7768L22.2857 22.2123H19.6964V28.998H25.8571C27.0179 28.998 28 28.0605 28 26.8552V11.1409C28 9.98019 27.0179 8.99805 25.8571 8.99805Z" fill="white"/>
</svg>
