<svg width="30" height="30" viewBox="0 0 30 30" fill="none" xmlns="http://www.w3.org/2000/svg">
<g id="Group 109">
<g id="Group 118">
<path id="i" d="M16.82 12.57V22.83H14.34V12.57H16.82ZM17.16 9.58C17.16 9.79333 17.1167 9.99333 17.03 10.18C16.9433 10.3667 16.8267 10.53 16.68 10.67C16.54 10.81 16.3733 10.9233 16.18 11.01C15.9867 11.09 15.78 11.13 15.56 11.13C15.3467 11.13 15.1433 11.09 14.95 11.01C14.7633 10.9233 14.6 10.81 14.46 10.67C14.32 10.53 14.2067 10.3667 14.12 10.18C14.04 9.99333 14 9.79333 14 9.58C14 9.36 14.04 9.15333 14.12 8.96C14.2067 8.76667 14.32 8.6 14.46 8.46C14.6 8.32 14.7633 8.21 14.95 8.13C15.1433 8.04333 15.3467 8 15.56 8C15.78 8 15.9867 8.04333 16.18 8.13C16.3733 8.21 16.54 8.32 16.68 8.46C16.8267 8.6 16.9433 8.76667 17.03 8.96C17.1167 9.15333 17.16 9.36 17.16 9.58Z" fill="white"/>
<circle id="Ellipse 21" cx="15" cy="15" r="13.5" stroke="white" stroke-width="3"/>
</g>
</g>
</svg>
