<svg width="36" height="37" viewBox="0 0 36 37" fill="none" xmlns="http://www.w3.org/2000/svg">
<rect y="0.998047" width="36" height="36" rx="18" fill="#B9090B" fill-opacity="0.5"/>
<path d="M18.0223 13.8418C15.1652 13.8418 12.8884 16.1632 12.8884 18.9757C12.8884 21.8329 15.1652 24.1097 18.0223 24.1097C20.8348 24.1097 23.1562 21.8329 23.1562 18.9757C23.1562 16.1632 20.8348 13.8418 18.0223 13.8418ZM18.0223 22.3239C16.192 22.3239 14.6741 20.8507 14.6741 18.9757C14.6741 17.1454 16.1473 15.6722 18.0223 15.6722C19.8527 15.6722 21.3259 17.1454 21.3259 18.9757C21.3259 20.8507 19.8527 22.3239 18.0223 22.3239ZM24.5402 13.6632C24.5402 12.9936 24.0045 12.4579 23.3348 12.4579C22.6652 12.4579 22.1295 12.9936 22.1295 13.6632C22.1295 14.3329 22.6652 14.8686 23.3348 14.8686C24.0045 14.8686 24.5402 14.3329 24.5402 13.6632ZM27.933 14.8686C27.8438 13.2614 27.4866 11.8329 26.3259 10.6722C25.1652 9.51144 23.7366 9.1543 22.1295 9.06501C20.4777 8.97573 15.5223 8.97573 13.8705 9.06501C12.2634 9.1543 10.8795 9.51144 9.67411 10.6722C8.51339 11.8329 8.15625 13.2614 8.06696 14.8686C7.97768 16.5204 7.97768 21.4757 8.06696 23.1275C8.15625 24.7347 8.51339 26.1186 9.67411 27.3239C10.8795 28.4847 12.2634 28.8418 13.8705 28.9311C15.5223 29.0204 20.4777 29.0204 22.1295 28.9311C23.7366 28.8418 25.1652 28.4847 26.3259 27.3239C27.4866 26.1186 27.8438 24.7347 27.933 23.1275C28.0223 21.4757 28.0223 16.5204 27.933 14.8686ZM25.7902 24.8686C25.4777 25.7614 24.7634 26.4311 23.9152 26.7882C22.5759 27.3239 19.4509 27.19 18.0223 27.19C16.5491 27.19 13.4241 27.3239 12.1295 26.7882C11.2366 26.4311 10.567 25.7614 10.2098 24.8686C9.67411 23.5739 9.80804 20.4489 9.80804 18.9757C9.80804 17.5472 9.67411 14.4222 10.2098 13.0829C10.567 12.2347 11.2366 11.565 12.1295 11.2079C13.4241 10.6722 16.5491 10.8061 18.0223 10.8061C19.4509 10.8061 22.5759 10.6722 23.9152 11.2079C24.7634 11.5204 25.433 12.2347 25.7902 13.0829C26.3259 14.4222 26.192 17.5472 26.192 18.9757C26.192 20.4489 26.3259 23.5739 25.7902 24.8686Z" fill="white"/>
</svg>
