<svg width="36" height="37" viewBox="0 0 36 37" fill="none" xmlns="http://www.w3.org/2000/svg">
<rect y="0.998047" width="36" height="36" rx="18" fill="#B9090B" fill-opacity="0.5"/>
<path d="M12.4743 28.998V15.62H8.3132V28.998H12.4743ZM10.3714 13.8303C11.7136 13.8303 12.7875 12.7117 12.7875 11.3694C12.7875 10.0719 11.7136 8.99805 10.3714 8.99805C9.07383 8.99805 8 10.0719 8 11.3694C8 12.7117 9.07383 13.8303 10.3714 13.8303ZM28.0447 28.998V21.6602C28.0447 18.0808 27.2394 15.3068 23.0336 15.3068C21.0201 15.3068 19.6779 16.4253 19.0962 17.4544H19.0515V15.62H15.0694V28.998H19.2304V22.3761C19.2304 20.6312 19.5436 18.9757 21.6913 18.9757C23.8389 18.9757 23.8837 20.9444 23.8837 22.5104V28.998H28.0447Z" fill="white"/>
</svg>
