<svg width="19" height="20" viewBox="0 0 19 20" fill="none" xmlns="http://www.w3.org/2000/svg">
<g id="lock_FILL0_wght400_GRAD0_opsz48 (1) 1">
<path id="Vector" d="M4.35417 18.2046C4.02761 18.2046 3.74805 18.0883 3.5155 17.8558C3.28295 17.6232 3.16667 17.3437 3.16667 17.0171V8.42751C3.16667 8.10094 3.28295 7.82139 3.5155 7.58883C3.74805 7.35628 4.02761 7.24001 4.35417 7.24001H5.73959V5.34001C5.73959 4.29962 6.10643 3.41279 6.84012 2.67951C7.57381 1.94623 8.46114 1.57959 9.5021 1.57959C10.5431 1.57959 11.4297 1.94623 12.162 2.67951C12.8943 3.41279 13.2604 4.29962 13.2604 5.34001V7.24001H14.6458C14.9724 7.24001 15.252 7.35628 15.4845 7.58883C15.7171 7.82139 15.8333 8.10094 15.8333 8.42751V17.0171C15.8333 17.3437 15.7171 17.6232 15.4845 17.8558C15.252 18.0883 14.9724 18.2046 14.6458 18.2046H4.35417ZM4.35417 17.0171H14.6458V8.42751H4.35417V17.0171ZM9.50333 14.2463C9.92334 14.2463 10.2818 14.1009 10.5787 13.8102C10.8755 13.5195 11.024 13.1701 11.024 12.7619C11.024 12.366 10.8744 12.0065 10.5753 11.6832C10.2762 11.36 9.91669 11.1983 9.49668 11.1983C9.07667 11.1983 8.71823 11.36 8.42136 11.6832C8.12448 12.0065 7.97605 12.3693 7.97605 12.7718C7.97605 13.1742 8.12559 13.5206 8.42468 13.8108C8.72378 14.1011 9.08332 14.2463 9.50333 14.2463ZM6.92709 7.24001H12.0729V5.34001C12.0729 4.6253 11.823 4.01781 11.3232 3.51753C10.8233 3.01724 10.2164 2.76709 9.50234 2.76709C8.78828 2.76709 8.18056 3.01724 7.67917 3.51753C7.17778 4.01781 6.92709 4.6253 6.92709 5.34001V7.24001Z" fill="white"/>
</g>
</svg>
