<svg width="263" height="65" viewBox="0 0 263 65" fill="none" xmlns="http://www.w3.org/2000/svg">
<g clip-path="url(#clip0_203_533)">
<path d="M24.888 53.8029C22.1653 54.281 19.3946 54.4243 16.5284 54.8061L7.78636 29.2017V55.905C5.06358 56.1916 2.5796 56.5737 0 56.9559V8.03955H7.26121L17.1971 35.7942V8.03955H24.888V53.8029ZM39.9356 25.9532C42.8975 25.9532 47.4356 25.8099 50.1584 25.8099V33.4529C46.7666 33.4529 42.8019 33.4529 39.9356 33.5963V44.9657C44.4261 44.6791 48.9165 44.2966 53.4544 44.1533V51.5094L32.2922 53.1817V8.03955H53.4544V15.6827H39.9356V25.9532ZM81.8774 15.6829H73.9477V50.8415C71.3681 50.8415 68.7885 50.8415 66.3049 50.9367V15.6829H58.3752V8.03955H81.8778L81.8774 15.6829ZM94.2975 25.4279H104.759V33.0709H94.2975V50.4116H86.7971V8.03955H108.151V15.6827H94.2975V25.4279ZM120.571 43.7236C124.918 43.8189 129.313 44.1538 133.564 44.3923V51.94C126.733 51.5098 119.902 51.0804 112.928 50.9367V8.03955H120.571V43.7236ZM140.013 52.4655C142.449 52.609 145.029 52.7524 147.513 53.0386V8.03955H140.013V52.4655ZM181 8.03955L171.303 31.3035L181 56.9559C178.134 56.5737 175.267 56.0482 172.401 55.5704L166.908 41.4309L161.319 54.4243C158.548 53.9462 155.873 53.8029 153.103 53.4207L162.943 31.0167L154.058 8.03955H162.274L167.29 20.8897L172.64 8.03955H181V8.03955Z" fill="#B9090B"/>
</g>
<line x1="191.5" y1="11" x2="191.5" y2="53" stroke="#B9090B"/>
<path d="M201.702 15.6358C201.702 12.6118 203.187 10.8838 206.076 10.8838C208.965 10.8838 210.45 12.6118 210.45 15.6358V16.2298H207.642V15.4468C207.642 14.0968 207.102 13.5838 206.157 13.5838C205.212 13.5838 204.672 14.0968 204.672 15.4468C204.672 19.3348 210.477 20.0638 210.477 25.4638C210.477 28.4878 208.965 30.2158 206.049 30.2158C203.133 30.2158 201.621 28.4878 201.621 25.4638V24.3028H204.429V25.6528C204.429 27.0028 205.023 27.4888 205.968 27.4888C206.913 27.4888 207.507 27.0028 207.507 25.6528C207.507 21.7648 201.702 21.0358 201.702 15.6358Z" fill="white"/>
<path d="M211.315 13.7998V11.0998H220.495V13.7998H217.39V29.9998H214.42V13.7998H211.315Z" fill="white"/>
<path d="M224.53 15.4468V25.6528C224.53 27.0028 225.124 27.5158 226.069 27.5158C227.014 27.5158 227.608 27.0028 227.608 25.6528V15.4468C227.608 14.0968 227.014 13.5838 226.069 13.5838C225.124 13.5838 224.53 14.0968 224.53 15.4468ZM221.56 25.4638V15.6358C221.56 12.6118 223.153 10.8838 226.069 10.8838C228.985 10.8838 230.578 12.6118 230.578 15.6358V25.4638C230.578 28.4878 228.985 30.2158 226.069 30.2158C223.153 30.2158 221.56 28.4878 221.56 25.4638Z" fill="white"/>
<path d="M238.313 22.9528H241.121V25.4638C241.121 28.4878 239.609 30.2158 236.693 30.2158C233.777 30.2158 232.265 28.4878 232.265 25.4638V15.6358C232.265 12.6118 233.777 10.8838 236.693 10.8838C239.609 10.8838 241.121 12.6118 241.121 15.6358V17.4718H238.313V15.4468C238.313 14.0968 237.719 13.5838 236.774 13.5838C235.829 13.5838 235.235 14.0968 235.235 15.4468V25.6528C235.235 27.0028 235.829 27.4888 236.774 27.4888C237.719 27.4888 238.313 27.0028 238.313 25.6528V22.9528Z" fill="white"/>
<path d="M249.7 29.9998L246.811 22.4668L245.893 24.1948V29.9998H242.923V11.0998H245.893V19.3348L249.781 11.0998H252.751L248.62 19.5238L252.751 29.9998H249.7Z" fill="white"/>
<path d="M253.593 15.6358C253.593 12.6118 255.078 10.8838 257.967 10.8838C260.856 10.8838 262.341 12.6118 262.341 15.6358V16.2298H259.533V15.4468C259.533 14.0968 258.993 13.5838 258.048 13.5838C257.103 13.5838 256.563 14.0968 256.563 15.4468C256.563 19.3348 262.368 20.0638 262.368 25.4638C262.368 28.4878 260.856 30.2158 257.94 30.2158C255.024 30.2158 253.512 28.4878 253.512 25.4638V24.3028H256.32V25.6528C256.32 27.0028 256.914 27.4888 257.859 27.4888C258.804 27.4888 259.398 27.0028 259.398 25.6528C259.398 21.7648 253.593 21.0358 253.593 15.6358Z" fill="white"/>
<path d="M215 45.1698V42.4698H229.5V48.4638C229.5 51.4619 228.014 53.1861 225.147 53.2154C225.122 53.2157 206.29 53.2158 206.265 53.2158C203.349 53.2158 201.837 51.4878 201.837 48.4638V38.6358C201.837 35.6118 203.349 33.8838 206.265 33.8838C206.292 33.8838 225.126 33.8839 225.153 33.8842C228.016 33.916 229.5 35.6399 229.5 38.6358V40.4718H226.692V38.4468C226.692 37.1286 226.126 36.6084 225.219 36.5846C225.197 36.5841 206.368 36.5838 206.346 36.5838C205.401 36.5838 204.807 37.0968 204.807 38.4468V48.6528C204.807 50.0028 205.401 50.4888 206.346 50.4888C206.363 50.4888 225.187 50.4886 225.204 50.4883C226.119 50.471 226.692 49.9785 226.692 48.6528V45.1698H215Z" fill="white"/>
<path d="M235.461 38.4468V48.6528C235.461 50.0028 236.055 50.5158 237 50.5158C237.045 50.5158 258.081 50.5146 258.125 50.5122C258.992 50.4647 259.53 49.938 259.53 48.6528V38.4468C259.53 37.1615 258.992 36.6349 258.125 36.5874C258.081 36.585 237.045 36.5838 237 36.5838C236.055 36.5838 235.461 37.0968 235.461 38.4468ZM232.491 48.4638V38.6358C232.491 35.6118 234.084 33.8838 237 33.8838C278.169 33.8838 258.08 33.8842 258.125 33.885C260.956 33.9372 262.5 35.6583 262.5 38.6358V48.4638C262.5 51.4614 260.935 53.1855 258.067 53.2154C258.042 53.2157 237.025 53.2158 237 53.2158C234.084 53.2158 232.491 51.4878 232.491 48.4638Z" fill="white"/>
<defs>
<clipPath id="clip0_203_533">
<rect width="181" height="48.9163" fill="white" transform="translate(0 8.03955)"/>
</clipPath>
</defs>
</svg>
