<svg width="38" height="38" viewBox="0 0 38 38" fill="none" xmlns="http://www.w3.org/2000/svg">
<g id="Group">
<path id="Vector" d="M34.4191 11.1029H26.647V28.8676H34.4191C36.2559 28.8676 37.75 27.3735 37.75 25.5368V14.4338C37.75 12.5971 36.2559 11.1029 34.4191 11.1029ZM34.4191 17.7647H29.978C29.3643 17.7647 28.8677 17.2681 28.8677 16.6545C28.8677 16.0407 29.3644 15.5443 29.978 15.5443H34.4191C35.0329 15.5443 35.5294 16.0409 35.5294 16.6545C35.5294 17.2681 35.0329 17.7647 34.4191 17.7647ZM21.0956 0H3.33088C1.49413 0 0 1.49413 0 3.33088V34.4191C0 36.2559 1.49413 37.75 3.33088 37.75H21.0956C22.9324 37.75 24.4265 36.2559 24.4265 34.4191V3.33088C24.4265 1.49413 22.9324 0 21.0956 0ZM11.103 4.44113H13.3236C13.9374 4.44113 14.4339 4.93775 14.4339 5.55137C14.4339 6.16512 13.9373 6.66162 13.3236 6.66162H11.103C10.4893 6.66162 9.99275 6.165 9.99275 5.55137C9.99263 4.93775 10.4893 4.44113 11.103 4.44113ZM13.3235 33.3089H11.1029C10.4891 33.3089 9.99262 32.8122 9.99262 32.1986C9.99262 31.5849 10.4893 31.0884 11.1029 31.0884H13.3235C13.9373 31.0884 14.4338 31.585 14.4338 32.1986C14.4339 32.8122 13.9373 33.3089 13.3235 33.3089ZM15.4357 16.9721C14.9347 17.3201 14.2409 17.1999 13.8918 16.6945C13.2715 15.8044 12.5299 15.3966 11.8794 15.595C11.4153 15.7402 11.103 16.1664 11.103 16.6544C11.103 17.267 11.6017 17.7646 12.2132 17.7646C14.05 17.7646 15.5441 19.2588 15.5441 21.0955C15.5441 22.516 14.6517 23.7456 13.3235 24.2184V25.5368C13.3235 26.1505 12.8269 26.647 12.2132 26.647C11.5995 26.647 11.103 26.1504 11.103 25.5368V24.2326C10.2205 23.9354 9.389 23.2971 8.71325 22.3251C8.362 21.822 8.4855 21.1302 8.98862 20.78C9.49387 20.4276 10.1856 20.5522 10.5347 21.0565C11.1528 21.9435 11.8879 22.363 12.5471 22.1549C13.0112 22.0096 13.3235 21.5835 13.3235 21.0955C13.3235 20.4829 12.8247 19.9852 12.2132 19.9852C10.3765 19.9852 8.88238 18.4911 8.88238 16.6544C8.88238 15.2339 9.77475 14.0042 11.103 13.5325V12.2132C11.103 11.5995 11.5996 11.103 12.2132 11.103C12.827 11.103 13.3235 11.5996 13.3235 12.2132V13.5408C14.2052 13.8384 15.0377 14.454 15.7132 15.4259C16.0646 15.929 15.941 16.6219 15.4357 16.9721Z" fill="#B9090B"/>
</g>
</svg>
