<svg width="37" height="34" viewBox="0 0 37 34" fill="none" xmlns="http://www.w3.org/2000/svg">
<g id="60e4a1e73807565f69e7fb9b_icon-section-about-3-crypto-template.svg" clip-path="url(#clip0_25_144)">
<path id="Vector" fill-rule="evenodd" clip-rule="evenodd" d="M36.1127 10.4359H28.4651C24.9062 10.4421 22.0231 13.2467 22.0166 16.7086C22.0118 20.1784 24.8981 22.9954 28.4651 23.0001H36.1192V23.5513C36.1192 29.6038 32.4414 33.1828 26.2177 33.1828H9.90311C3.67774 33.1828 0 29.6038 0 23.5513V10.3687C0 4.31622 3.67774 0.751221 9.90311 0.751221H26.2113C32.435 0.751221 36.1127 4.31622 36.1127 10.3687V10.4359ZM8.55945 10.4218H18.7451H18.7514H18.7644C19.5269 10.4187 20.1432 9.81431 20.1401 9.07105C20.1369 8.32931 19.514 7.72968 18.7514 7.7328H8.55945C7.80176 7.73592 7.18693 8.33399 7.18372 9.07264C7.18051 9.81431 7.79694 10.4187 8.55945 10.4218Z" fill="#B9090B"/>
<g id="Mask group">
<mask id="mask0_25_144" style="mask-type:alpha" maskUnits="userSpaceOnUse" x="25" y="13" width="12" height="8">
<path id="Vector_2" d="M25.351 17.5018C25.7287 19.2156 27.2347 20.4213 28.9542 20.3901H34.8235C35.5388 20.3901 36.1192 19.7989 36.1192 19.0682V14.507C36.1176 13.7779 35.5388 13.1852 34.8235 13.1836H28.816C26.8601 13.1899 25.2803 14.8096 25.2835 16.8056C25.2835 17.0393 25.3065 17.2729 25.351 17.5018Z" fill="#F19D38"/>
</mask>
<path id="Vector_3" d="M28.8952 18.5886C29.8926 18.5886 30.7011 17.7819 30.7011 16.7869C30.7011 15.7918 29.8926 14.9851 28.8952 14.9851C27.8978 14.9851 27.0892 15.7918 27.0892 16.7869C27.0892 17.7819 27.8978 18.5886 28.8952 18.5886Z" fill="#B9090B"/>
</g>
</g>
<defs>
<clipPath id="clip0_25_144">
<rect width="36.8974" height="33.4651" fill="white"/>
</clipPath>
</defs>
</svg>
