<svg width="38" height="39" viewBox="0 0 38 39" fill="none" xmlns="http://www.w3.org/2000/svg">
<g id="Group">
<g id="Group_2">
<path id="Vector" d="M29.978 11.6029H28.8677V13.8235H29.978C30.5895 13.8235 31.0882 13.3247 31.0882 12.7132C31.0882 12.1016 30.5895 11.6029 29.978 11.6029ZM32.1985 0.5H5.5515C2.4895 0.5 0 2.9895 0 6.0515V14.9339C0 17.9959 2.4895 20.4854 5.5515 20.4854H14.9883L15.5443 19.7438V11.8069C15.5443 9.15475 17.5371 7.16187 19.9854 7.16187C22.4336 7.16187 24.4265 9.15475 24.4265 11.603V18.9935L27.4299 19.7395C28.0912 19.9029 28.6993 20.1705 29.2749 20.4855H32.1985C35.2605 20.4855 37.75 17.996 37.75 14.934V6.05162C37.75 2.9895 35.2605 0.5 32.1985 0.5ZM10.9945 8.58862C10.4936 8.93775 9.79963 8.81625 9.4505 8.311C8.83025 7.42188 8.08863 7.02075 7.43813 7.21162C6.974 7.35912 6.66175 7.78412 6.66175 8.272C6.66175 8.88362 7.1605 9.38225 7.772 9.38225C9.60875 9.38225 11.1029 10.8764 11.1029 12.7131C11.1029 14.6035 9.56963 16.0505 7.7525 16.0505C6.473 16.0505 5.22187 15.3068 4.272 13.9405C3.92075 13.4374 4.04425 12.7456 4.54963 12.3965C5.0505 12.0496 5.7445 12.1689 6.09362 12.6741C6.71387 13.5633 7.462 13.9687 8.106 13.7736C8.57013 13.6261 8.88238 13.2011 8.88238 12.7132C8.88238 12.1016 8.38363 11.6029 7.77213 11.6029C5.93538 11.6029 4.44125 10.1087 4.44125 8.272C4.44125 6.80825 5.37813 5.531 6.77463 5.09287C8.3945 4.58325 10.0709 5.31625 11.2721 7.04462C11.6234 7.54775 11.4997 8.2395 10.9945 8.58862ZM33.3089 12.7132C33.3089 14.55 31.8148 16.0441 29.978 16.0441H27.7574C27.1436 16.0441 26.6471 15.5475 26.6471 14.9339V6.0515C26.6471 5.43775 27.1437 4.94125 27.7574 4.94125H29.978C31.8148 4.94125 33.3089 6.43538 33.3089 8.27213C33.3089 9.12838 32.9753 9.90213 32.4425 10.4928C32.9751 11.0834 33.3089 11.857 33.3089 12.7132ZM29.978 7.16175H28.8677V9.38238H29.978C30.5895 9.38238 31.0882 8.88363 31.0882 8.27213C31.0882 7.6605 30.5895 7.16175 29.978 7.16175ZM26.8942 21.8949L22.2059 20.7282V11.603C22.2059 10.3765 21.2117 9.38238 19.9852 9.38238C18.7587 9.38238 17.7646 10.3765 17.7646 11.603V28.2574C17.7646 28.8711 17.268 29.3677 16.6544 29.3677C16.0408 29.3677 15.5441 28.8711 15.5441 28.2574V23.4454L11.7752 28.472C11.3415 29.0401 11.103 29.7514 11.103 30.4779C11.103 31.2044 11.3415 31.9156 11.7687 32.4751L15.104 36.9206C15.735 37.7534 16.7281 38.25 17.7647 38.25H27.7574C29.5941 38.25 31.0882 36.7559 31.0882 34.9191V27.2794C31.0882 24.7182 29.3621 22.5042 26.8942 21.8949Z" fill="#B9090B"/>
</g>
</g>
</svg>
