<svg width="38" height="38" viewBox="0 0 38 38" fill="none" xmlns="http://www.w3.org/2000/svg">
<g id="Frame 1178">
<g id="Group">
<g id="Group_2">
<path id="Vector" d="M23.4569 6.66175H13.4183C12.6873 7.74925 11.7503 8.68613 10.6635 9.41575V18.1539C10.6635 23.47 13.6981 28.3221 18.4375 30.6534C23.177 28.3222 26.2115 23.4701 26.2115 18.1539V9.41575C25.125 8.68613 24.1879 7.74925 23.4569 6.66175ZM21.6609 15.8619C21.162 16.2099 20.4679 16.0906 20.1165 15.5842C19.4961 14.6951 18.75 14.2875 18.1035 14.4848C17.6394 14.63 17.327 15.0561 17.327 15.5441C17.327 16.1567 17.8259 16.6544 18.4376 16.6544C20.2749 16.6544 21.7694 18.1485 21.7694 19.9852C21.7694 21.4057 20.8768 22.6354 19.5483 23.1081V24.4265C19.5483 25.0402 19.0515 25.5368 18.4376 25.5368C17.8238 25.5368 17.327 25.0401 17.327 24.4265V23.1224C16.4444 22.8251 15.6126 22.1869 14.9366 21.2149C14.5853 20.7118 14.7089 20.02 15.2121 19.6698C15.7175 19.3174 16.4095 19.4431 16.7588 19.9463C17.377 20.8331 18.1145 21.2539 18.7718 21.0446C19.2359 20.8994 19.5483 20.4732 19.5483 19.9852C19.5483 19.3726 19.0494 18.875 18.4376 18.875C16.6004 18.875 15.1059 17.3809 15.1059 15.5441C15.1059 14.1236 15.9985 12.894 17.327 12.4223V11.103C17.327 10.4893 17.8238 9.99275 18.4376 9.99275C19.0515 9.99275 19.5483 10.4894 19.5483 11.103V12.4304C20.4303 12.7284 21.2629 13.3444 21.9386 14.3156C22.2899 14.8187 22.1663 15.5116 21.6609 15.8619ZM31.7645 4.44113C29.9272 4.44113 28.4328 2.947 28.4328 1.11025C28.4328 0.4965 27.936 0 27.3221 0H9.553C8.93913 0 8.44238 0.496625 8.44238 1.11025C8.44238 2.947 6.94788 4.44113 5.11063 4.44113C4.49675 4.44113 4 4.93775 4 5.55137V18.1539C4 27.033 9.66138 34.8853 18.0861 37.6925C18.201 37.7305 18.3182 37.75 18.4375 37.75C18.5568 37.75 18.674 37.7305 18.7889 37.6925C27.2138 34.8854 32.8751 27.033 32.8751 18.154V5.5515C32.8751 4.93775 32.3784 4.44113 31.7645 4.44113ZM28.4328 18.154C28.4328 24.5121 24.6868 30.2979 18.8909 32.8936C18.7478 32.9576 18.5915 32.9901 18.4375 32.9901C18.2835 32.9901 18.1274 32.9576 17.9841 32.8936C12.1884 30.2979 8.44225 24.5121 8.44225 18.154V8.80112C8.44225 8.40537 8.65263 8.04 8.99538 7.8405C10.1733 7.15737 11.158 6.17287 11.8413 4.99425C12.0408 4.65162 12.4053 4.44125 12.8021 4.44125H24.0728C24.4697 4.44125 24.8341 4.65162 25.0336 4.99425C25.7169 6.17287 26.7016 7.15737 27.8795 7.8405C28.2223 8.04 28.4326 8.40537 28.4326 8.80112V18.154H28.4328Z" fill="#B9090B"/>
</g>
</g>
</g>
</svg>
