<svg width="36" height="37" viewBox="0 0 36 37" fill="none" xmlns="http://www.w3.org/2000/svg">
<rect y="0.998047" width="36" height="36" rx="18" fill="#B9090B" fill-opacity="0.5"/>
<path d="M26.7188 9.67997C26.9397 9.84068 27.0301 10.055 26.99 10.3228L24.4185 25.7514C24.385 25.9456 24.2779 26.0963 24.0971 26.2034C24.0033 26.257 23.8996 26.2838 23.7857 26.2838C23.7121 26.2838 23.6317 26.267 23.5446 26.2335L18.9944 24.3753L16.5636 27.3384C16.4431 27.4925 16.279 27.5695 16.0714 27.5695C15.9844 27.5695 15.9107 27.5561 15.8504 27.5293C15.7232 27.4824 15.6194 27.4021 15.5391 27.2882C15.4654 27.1811 15.4286 27.0605 15.4286 26.9266V23.421L24.1071 12.7838L13.3694 22.0751L9.40179 20.4478C9.15402 20.3541 9.02009 20.1699 9 19.8954C8.98661 19.6275 9.09375 19.43 9.32143 19.3027L26.0357 9.65988C26.1362 9.59961 26.2433 9.56947 26.3571 9.56947C26.4911 9.56947 26.6116 9.6063 26.7188 9.67997Z" fill="white"/>
</svg>
