<svg width="36" height="37" viewBox="0 0 36 37" fill="none" xmlns="http://www.w3.org/2000/svg">
<rect y="0.998047" width="36" height="36" rx="18" fill="#B9090B" fill-opacity="0.5"/>
<path d="M27.8884 13.1518C27.34 13.9539 26.6771 14.6373 25.8996 15.202C25.9077 15.3166 25.9118 15.4885 25.9118 15.7176C25.9118 16.7816 25.7563 17.8456 25.4453 18.9096C25.1343 19.9654 24.6596 20.9803 24.0212 21.9542C23.391 22.9282 22.638 23.7917 21.7623 24.5446C20.8865 25.2894 19.8307 25.8869 18.5949 26.3371C17.359 26.779 16.0372 27 14.6295 27C12.4115 27 10.3817 26.4066 8.54018 25.2199C8.82664 25.2526 9.14583 25.269 9.49777 25.269C11.3393 25.269 12.9803 24.7042 14.4208 23.5748C13.5614 23.5584 12.792 23.2965 12.1127 22.7891C11.4334 22.2734 10.9669 21.6187 10.7132 20.8248C10.9833 20.8657 11.2329 20.8862 11.4621 20.8862C11.814 20.8862 12.1618 20.8411 12.5056 20.7511C11.5889 20.5629 10.8278 20.1086 10.2221 19.3884C9.62463 18.66 9.32589 17.817 9.32589 16.8594V16.8103C9.88244 17.1213 10.4799 17.2891 11.1183 17.3136C10.5781 16.9535 10.1484 16.4829 9.82924 15.9018C9.51004 15.3207 9.35045 14.6905 9.35045 14.0112C9.35045 13.2909 9.53051 12.6239 9.89063 12.01C10.881 13.2295 12.0841 14.2076 13.5 14.9442C14.9241 15.6726 16.4464 16.0778 18.067 16.1596C18.0015 15.8486 17.9688 15.5458 17.9688 15.2511C17.9688 14.1544 18.3534 13.2214 19.1228 12.452C19.9003 11.6745 20.8374 11.2857 21.9342 11.2857C23.08 11.2857 24.0458 11.7031 24.8315 12.5379C25.7236 12.3661 26.5625 12.0469 27.3482 11.5804C27.0454 12.5216 26.4643 13.25 25.6049 13.7656C26.3661 13.6838 27.1272 13.4792 27.8884 13.1518Z" fill="white"/>
</svg>
